<?xml version="1.0" encoding="UTF-8"?>
<svg xmlns="http://www.w3.org/2000/svg" viewBox="0 0 1000 800" width="1000" height="800">
  <title>Blank Map of California</title>
  <rect width="100%" height="100%" fill="white"/>
  <g>
    <path d="M349.057,442.152L349.971,440.716L352.942,441.742L354.313,441.878L358.884,435.035L361.169,434.624L363.454,436.815L376.252,436.815L375.109,439.552L377.395,440.51L380.366,444.408L381.051,446.732L394.306,453.426L395.22,454.382L415.33,474.347L415.787,486.988L411.674,488.007L410.531,491.807L406.189,488.414L408.017,492.417L408.703,496.825L405.275,496.893L398.648,489.839L394.763,488.55L392.935,491.196L390.878,489.839L389.278,491.875L389.278,491.875L387.678,491.264L387.45,488.482L385.165,485.019L375.338,475.232L374.652,472.987L370.082,473.259L371.224,471.149L369.168,469.107L369.625,464.679L366.882,461.067L360.255,458.748L359.112,456.565L361.169,455.747L359.569,452.607L356.827,451.924L352.028,446.664L350.428,445.981Z" fill="none" stroke="#333" stroke-width="0.8" stroke-linejoin="round"/>
    <path d="M294.668,90.433L361.626,90.361L368.939,90.288L368.939,113.785L369.625,113.785L369.168,152.441L358.427,152.441L348.829,153.304L346.315,151.794L343.344,153.16L335.803,152.657L330.089,154.956L325.747,154.022L320.491,155.172L320.491,155.172L317.749,156.393L304.266,158.619L296.953,158.26L293.068,157.039L284.612,162.207L278.442,159.193L271.815,160.987L270.672,160.557L267.93,164.001L266.787,163.57L266.787,163.57L263.588,163.57L263.588,163.57L258.56,165.65L258.332,161.633L261.302,158.906L263.131,154.669L269.072,152.297L272.729,147.336L275.471,146.832L277.528,143.234L281.87,141.866L281.184,137.184L278.442,132.209L281.413,129.034L280.499,127.591L284.384,123.908L283.927,120.439L287.812,115.088L288.04,108.21L292.839,104.079L293.753,98.494L296.953,97.623L297.867,92.395Z" fill="none" stroke="#333" stroke-width="0.8" stroke-linejoin="round"/>
    <path d="M389.507,219.458L393.163,216.829L394.306,211.07L398.191,208.153L401.847,210.857L403.447,213.63L405.732,212.848L410.303,216.261L413.045,213.915L444.353,213.844L452.58,213.702L453.495,212.564L453.495,235.487L421.729,235.416L419.672,234L418.301,229.818L416.244,229.038L410.531,229.464L406.418,234.141L402.761,236.125L399.105,236.408L399.105,236.408L397.734,236.762L397.734,236.762L390.192,238.178L388.593,239.948L387.907,229.818L386.307,227.904L388.364,226.13Z" fill="none" stroke="#333" stroke-width="0.8" stroke-linejoin="round"/>
    <path d="M419.215,430.172L421.272,433.118L424.929,440.784L424.7,444.613L430.185,448.782L430.185,450.831L439.097,452.061L448.695,447.621L451.895,448.441L454.637,446.391L457.38,446.937L461.036,444.955L465.607,445.639L466.978,442.015L470.634,437.979L470.177,436.062L472.691,433.323L474.748,432.981L475.89,430.377L477.947,431.542L478.861,428.047L481.603,428.39L483.203,425.304L481.375,424.481L482.289,422.149L483.889,423.452L486.174,422.629L486.631,424.893L490.059,420.639L492.801,421.737L496.458,417L496.001,408.685L497.372,405.589L515.883,386.845L518.854,389.122L522.739,389.674L526.852,395.673L530.28,394.639L531.651,396.707L532.565,398.911L530.966,402.836L531.423,406.896L536.907,409.716L538.507,413.153L537.364,415.352L539.878,422.56L543.078,422.698L547.191,424.893L553.133,429.349L554.275,434.35L557.703,442.084L557.703,446.459L556.104,447.006L558.16,454.04L518.397,454.245L518.397,460.999L498.058,460.726L497.829,467.609L487.774,467.472L480.918,474.347L474.976,479.855L474.519,478.904L469.72,480.059L469.263,481.215L456.237,481.283L456.237,498.587L433.613,520.234L430.87,515.775L426.071,515.37L423.1,512.125L419.215,510.028L416.016,507.255L415.33,504.886L412.359,504.412L410.988,499.942L413.731,496.893L410.303,493.095L410.531,491.807L411.674,488.007L415.787,486.988L415.33,474.347L395.22,454.382L411.902,437.431L416.016,437.5L415.559,433.802Z" fill="none" stroke="#333" stroke-width="0.8" stroke-linejoin="round"/>
    <path d="M388.364,312.249L393.849,310.571L394.763,311.69L400.019,308.403L405.047,308.543L413.731,312.598L420.129,312.109L429.728,309.243L433.841,309.173L438.869,305.115L440.24,302.385L445.039,301.195L445.953,296.851L449.153,296.361L449.153,312.109L443.896,313.367L440.925,312.878L435.898,314.904L429.271,316.022L427.214,315.044L424.471,317.21L421.958,317.14L420.129,319.165L414.645,321.817L413.502,325.445L402.304,330.185L396.591,335.548L390.192,335.2L388.364,329.14Z" fill="none" stroke="#333" stroke-width="0.8" stroke-linejoin="round"/>
    <path d="M453.495,266.568L453.723,272.13L459.665,277.547L461.493,282.748L456.008,290.4L449.153,296.361L445.953,296.851L445.039,301.195L440.24,302.385L438.869,305.115L433.841,309.173L429.728,309.243L420.129,312.109L413.731,312.598L405.047,308.543L400.019,308.403L394.763,311.69L393.849,310.571L388.364,312.249L382.422,295.239L381.051,295.66L383.565,289.628L383.565,287.172L386.079,284.715L387.45,279.023L393.849,277.336L393.849,275.156L399.105,276L402.076,272.06L407.332,271.778L412.817,276.633L417.159,279.094L421.044,277.758L423.786,274.945L426.071,269.737L438.412,270.159L442.068,269.526L444.582,266.568Z" fill="none" stroke="#333" stroke-width="0.8" stroke-linejoin="round"/>
    <path d="M338.316,445.57L339.916,442.836L345.401,440.1L349.057,442.152L350.428,445.981L352.028,446.664L356.827,451.924L359.569,452.607L361.169,455.747L359.112,456.565L360.255,458.748L366.882,461.067L369.625,464.679L369.168,469.107L371.224,471.149L370.082,473.259L374.652,472.987L375.338,475.232L385.165,485.019L387.45,488.482L387.678,491.264L389.278,491.875L389.278,491.875L390.878,489.839L392.935,491.196L394.763,488.55L398.648,489.839L405.275,496.893L408.703,496.825L408.017,492.417L406.189,488.414L410.531,491.807L410.303,493.095L413.731,496.893L410.988,499.942L412.359,504.412L415.33,504.886L416.016,507.255L419.215,510.028L423.1,512.125L426.071,515.37L430.87,515.775L433.613,520.234L436.126,520.301L438.412,523.474L437.269,525.094L439.554,527.118L440.011,529.478L382.651,529.141L368.025,529.006L363.683,524.284L360.484,521.922L359.112,515.234L357.97,512.869L353.399,510.908L349.971,503.87L344.258,497.503L336.717,493.163L334.203,490.11L332.375,484.68L332.603,481.826L330.089,474.96L330.546,468.698L328.033,467.609L330.318,462.567L334.431,465.156L336.488,463.112L338.088,458.953L339.916,449.329Z" fill="none" stroke="#333" stroke-width="0.8" stroke-linejoin="round"/>
    <path d="M602.266,604.88L604.552,604.947L604.552,555.988L604.323,540.257L605.466,537.968L603.18,537.968L604.323,535.678L604.323,528.871L666.94,529.006L725.214,529.141L725.214,527.927L730.699,527.86L745.782,542.343L761.779,558.069L795.373,591.007L795.144,600.815L798.8,604.614L800.4,609.21L805.656,613.403L811.598,629.286L811.141,633.135L814.112,633.599L821.196,640.229L824.396,641.487L826.909,645.064L827.138,648.307L821.425,652.608L821.196,653.864L817.311,655.253L815.026,657.896L808.856,660.407L807.942,662.256L751.952,662.388L751.952,665.755L675.852,665.821L649.115,665.755L649.115,667.999L631.061,668.065L630.375,666.943L621.006,666.877L620.777,665.755L609.122,665.821L609.122,669.252L605.923,670.572L605.694,674.132L602.952,674.198L601.809,678.284L594.725,672.484L593.582,670.242L595.868,666.613L598.153,666.745L601.581,655.583L603.637,646.123L603.18,642.282L602.266,625.369Z" fill="none" stroke="#333" stroke-width="0.8" stroke-linejoin="round"/>
    <path d="M263.588,163.57L263.588,163.57L266.787,163.57L266.787,163.57L267.93,164.001L270.672,160.557L271.815,160.987L278.442,159.193L284.612,162.207L293.068,157.039L296.953,158.26L304.266,158.619L317.749,156.393L320.491,155.172L320.491,155.172L325.747,154.022L330.089,154.956L335.803,152.657L343.344,153.16L346.315,151.794L348.829,153.304L358.427,152.441L360.027,160.27L365.74,161.203L368.254,163.785L365.968,164.718L367.797,166.582L366.654,171.885L364.14,173.675L362.083,173.317L362.083,176.968L361.169,179.4L357.513,181.188L352.714,181.188L352.028,184.762L349.514,187.406L348.829,191.047L345.172,190.905L342.43,194.687L342.201,197.325L338.773,199.179L323.462,199.25L321.862,202.813L323.462,206.374L266.559,206.303L265.187,202.457L265.873,197.254L267.701,196.47L266.787,191.404L265.644,189.691L265.187,181.26L263.359,177.469L264.502,174.033L264.045,169.449L259.474,167.227L258.56,165.65Z" fill="none" stroke="#333" stroke-width="0.8" stroke-linejoin="round"/>
    <path d="M388.593,239.948L390.192,238.178L397.734,236.762L397.734,236.762L399.105,236.408L399.105,236.408L402.761,236.125L406.418,234.141L410.531,229.464L416.244,229.038L418.301,229.818L419.672,234L421.729,235.416L453.495,235.487L453.266,246.102L412.588,246.243L407.332,248.434L402.533,252.955L399.105,255.144L398.419,257.261L395.905,258.108L391.335,263.044L390.649,265.793L387.45,270.934L383.336,271.145L381.28,268.962L378.08,271.004L372.139,269.244L372.139,253.167L373.053,249.706L376.024,248.929L376.938,246.102L381.965,240.868L384.708,239.665Z" fill="none" stroke="#333" stroke-width="0.8" stroke-linejoin="round"/>
    <path d="M452.352,318.327L461.036,324.608L466.292,320.91L469.492,319.653L472.919,320.212L472.691,323.84L476.576,326.979L476.119,330.533L478.861,334.295L477.261,337.497L484.574,342.367L485.717,340.976L488.916,345.635L490.059,344.383L494.858,346.608L497.829,350.984L496.915,355.981L498.058,357.924L503.771,361.598L503.542,365.202L504.456,370.049L500.114,374.477L497.6,371.364L493.258,366.379L490.059,364.232L485.946,364.509L483.66,362.084L480.689,361.876L478.861,364.925L475.89,366.448L475.89,367.972L469.72,371.571L465.607,373.024L462.179,371.779L457.608,372.54L452.123,368.664L448.467,367.349L445.496,371.087L442.068,369.98L441.84,371.987L438.412,372.471L437.041,374.892L431.784,375.514L434.07,380.491L432.698,381.666L428.814,378.971L429.042,382.978L412.131,367.002L413.502,364.647L419.444,359.449L420.815,356.606L419.215,355.496L420.815,353.136L424.014,352.372L424.7,350.081L432.013,339.376L437.269,330.324L440.468,326.979L443.896,322.026Z" fill="none" stroke="#333" stroke-width="0.8" stroke-linejoin="round"/>
    <path d="M513.597,707.336L515.426,706.877L515.654,709.565L513.14,709.106ZM458.751,662.454L462.864,662.917L465.835,664.369L469.263,664.039L473.605,666.877L477.947,667.141L479.547,664.567L484.117,665.887L481.603,668.725L475.205,669.45L471.32,671.495L461.722,669.912L461.493,665.887ZM437.955,668.263L442.982,667.735L445.039,666.349L448.01,666.877L450.981,665.623L450.981,668.791L455.094,669.648L455.323,672.814L445.953,676.373L442.297,673.934ZM425.157,665.491L428.814,664.369L430.185,662.52L431.556,664.831L434.527,666.547L429.728,666.943ZM412.359,593.077L413.959,593.944L421.729,591.741L426.071,592.142L434.755,598.081L434.984,595.279L432.241,590.873L437.041,589.137L437.041,589.137L440.24,589.471L442.068,588.202L442.982,585.262L445.496,583.725L445.496,583.725L448.238,582.321L455.551,586.732L458.294,586.532L462.864,588.669L464.464,590.54L469.72,593.077L474.519,593.21L478.176,594.945L483.203,599.081L487.317,598.815L489.145,598.815L489.145,632.67L488.916,637.246L486.86,639.367L481.832,636.583L474.519,636.318L470.863,637.909L466.749,636.252L461.722,636.915L453.266,632.936L448.01,632.936L444.582,631.941L434.527,632.405L423.557,633.864L423.329,631.808L420.358,627.427L416.702,625.435L413.959,625.701L412.588,623.575L415.559,614.068L413.045,610.075L414.873,602.148L410.988,598.548Z" fill="none" stroke="#333" stroke-width="0.8" stroke-linejoin="round"/>
    <path d="M236.621,90.651L243.706,93.921L247.134,99.293L254.675,99.365L259.474,102.484L260.617,105.457L264.502,104.804L266.787,106.471L269.072,103.644L267.701,100.308L264.73,98.494L265.644,93.049L269.529,88.689L275.471,88.253L280.27,83.671L284.155,81.196L285.069,78.939L288.954,77.628L291.24,75.224L295.353,78.429L293.753,82.361L293.525,88.544L294.668,90.433L297.867,92.395L296.953,97.623L293.753,98.494L292.839,104.079L288.04,108.21L287.812,115.088L283.927,120.439L284.384,123.908L280.499,127.591L281.413,129.034L278.442,132.209L281.184,137.184L281.87,141.866L277.528,143.234L275.471,146.832L272.729,147.336L269.072,152.297L263.131,154.669L261.302,158.906L258.332,161.633L258.56,165.65L259.474,167.227L264.045,169.449L264.502,174.033L263.359,177.469L265.187,181.26L265.644,189.691L266.787,191.404L227.937,191.476L227.937,189.405L227.937,131.632L228.166,128.24L226.109,117.909L223.138,111.976L226.795,110.166L231.137,112.917L234.108,110.673L234.108,108.645L236.621,104.224L235.479,100.671L233.651,100.018L235.25,93.194Z" fill="none" stroke="#333" stroke-width="0.8" stroke-linejoin="round"/>
    <path d="M360.027,395.122L360.027,395.19L374.652,380.56L380.823,376.206L386.307,373.578L388.136,374.339L390.192,372.817L394.991,374.615L394.763,347.163L397.962,351.123L412.131,367.002L429.042,382.978L391.106,401.735L392.249,406.071L375.566,422.972L372.139,419.06L369.168,420.433L367.339,418.991L365.054,421.874L363.454,416.863L360.941,413.772L360.712,411.091L364.14,408.891L362.997,405.039L363.912,403.18L360.941,402.079L360.027,399.876Z" fill="none" stroke="#333" stroke-width="0.8" stroke-linejoin="round"/>
    <path d="M279.356,240.585L317.749,240.443L317.749,238.036L325.747,238.107L325.747,240.585L333.289,240.585L332.146,247.162L329.632,252.39L331.003,255.779L329.861,257.332L333.517,266.145L336.031,266.286L337.631,269.455L337.859,273.045L336.717,278.25L304.723,278.32L300.381,275.156L299.924,270.441L294.896,267.624L294.439,262.128L296.039,257.826L293.525,254.932L289.868,255.356L283.013,252.532L278.213,248.717L277.071,246.526Z" fill="none" stroke="#333" stroke-width="0.8" stroke-linejoin="round"/>
    <path d="M449.153,312.109L449.153,296.361L456.008,290.4L461.493,282.748L459.665,277.547L480.004,295.52L478.176,299.374L477.947,304.415L482.746,312.948L481.603,320.142L477.719,321.538L478.633,323.771L476.576,326.979L472.691,323.84L472.919,320.212L469.492,319.653L466.292,320.91L461.036,324.608L452.352,318.327L449.153,317.21Z" fill="none" stroke="#333" stroke-width="0.8" stroke-linejoin="round"/>
    <path d="M229.766,20.736L240.506,20.883L248.048,20.515L253.304,20L259.703,20.589L285.983,20.442L294.439,20.074L307.922,20.147L326.433,20.515L361.626,21.104L360.941,25.15L360.941,39.986L361.398,39.986L361.398,69.464L361.626,90.361L294.668,90.433L293.525,88.544L293.753,82.361L295.353,78.429L291.24,75.224L288.954,77.628L285.069,78.939L284.155,81.196L280.27,83.671L275.471,88.253L269.529,88.689L265.644,93.049L264.73,98.494L267.701,100.308L269.072,103.644L266.787,106.471L264.502,104.804L260.617,105.457L259.474,102.484L254.675,99.365L247.134,99.293L243.706,93.921L236.621,90.651L234.793,86.653L232.508,74.859L230.68,73.474L220.624,73.547L223.595,68.077L221.081,60.191L218.568,58.583L219.253,55.659L216.968,55.439L219.025,51.196L220.624,44.238L219.482,42.552L219.71,38.225L217.882,35.804L221.31,32.72L221.767,30.443L224.281,30.81L226.795,28.973Z" fill="none" stroke="#333" stroke-width="0.8" stroke-linejoin="round"/>
    <path d="M185.431,20.957L210.341,21.178L220.853,21.251L229.766,20.736L226.795,28.973L224.281,30.81L221.767,30.443L221.31,32.72L217.882,35.804L219.71,38.225L219.482,42.552L220.624,44.238L219.025,51.196L216.968,55.439L219.253,55.659L218.568,58.583L221.081,60.191L223.595,68.077L220.624,73.547L213.54,73.62L213.54,66.545L194.801,66.472L193.887,59.46L190.459,50.098L188.63,43.065L186.574,43.358L182.689,39.399L184.974,33.968L186.117,25.886Z" fill="none" stroke="#333" stroke-width="0.8" stroke-linejoin="round"/>
    <path d="M531.651,396.707L591.754,396.5L634.032,435.994L692.306,491.06L718.13,515.708L730.699,527.86L725.214,527.927L725.214,529.141L666.94,529.006L604.323,528.871L585.812,528.804L585.812,529.68L580.556,529.478L580.785,523.677L582.156,523.339L581.47,517.329L579.871,515.978L580.556,513.68L578.956,512.192L577.814,506.646L576.671,505.224L577.357,500.416L574.614,496.486L573.015,489.16L574.614,486.174L570.958,482.302L571.872,479.652L567.53,478.768L565.473,475.028L565.245,470.741L562.502,468.766L562.731,465.224L560.674,463.316L557.703,458.203L559.76,457.111L558.16,454.04L556.104,447.006L557.703,446.459L557.703,442.084L554.275,434.35L553.133,429.349L547.191,424.893L543.078,422.698L539.878,422.56L537.364,415.352L538.507,413.153L536.907,409.716L531.423,406.896L530.966,402.836L532.565,398.911Z" fill="none" stroke="#333" stroke-width="0.8" stroke-linejoin="round"/>
    <path d="M353.171,345.843L352.714,343.758L355.913,341.185L356.37,337.776L359.341,332.902L362.769,332.832L363.912,334.713L368.025,334.991L372.824,333.041L375.795,333.668L378.994,332.763L385.85,329.209L388.364,329.14L390.192,335.2L393.849,346.33L394.763,347.163L394.991,374.615L390.192,372.817L388.136,374.339L386.307,373.578L380.823,376.206L374.652,380.56L360.027,395.19L357.97,391.605L354.542,390.295L354.542,368.249L355.913,365.548L353.171,364.647L354.542,358.895L352.942,354.732L354.542,352.095L352.714,350.567Z" fill="none" stroke="#333" stroke-width="0.8" stroke-linejoin="round"/>
    <path d="M703.047,712.319L742.125,712.253L743.954,712.122L795.83,711.729L794.687,713.039L789.431,713.891L791.259,717.232L789.202,721.487L792.63,724.17L792.173,733.453L790.573,737.828L793.773,742.266L794.458,741.157L797.429,742.788L799.029,741.94L802.914,742.658L804.971,749.634L806.113,751.329L805.885,756.474L801.771,760.574L802.228,763.176L796.515,764.867L791.031,764.021L789.888,766.037L742.354,769.937L701.676,773.639L701.676,739.069L703.276,739.069Z" fill="none" stroke="#333" stroke-width="0.8" stroke-linejoin="round"/>
    <path d="M449.153,312.109L449.153,317.21L452.352,318.327L443.896,322.026L440.468,326.979L437.269,330.324L432.013,339.376L424.7,350.081L424.014,352.372L420.815,353.136L419.215,355.496L420.815,356.606L419.444,359.449L413.502,364.647L412.131,367.002L397.962,351.123L394.763,347.163L393.849,346.33L390.192,335.2L396.591,335.548L402.304,330.185L413.502,325.445L414.645,321.817L420.129,319.165L421.958,317.14L424.471,317.21L427.214,315.044L429.271,316.022L435.898,314.904L440.925,312.878L443.896,313.367Z" fill="none" stroke="#333" stroke-width="0.8" stroke-linejoin="round"/>
    <path d="M362.083,176.968L364.369,176.968L364.14,179.972L366.654,182.404L363.226,188.263L363.912,193.046L363.683,200.248L367.111,201.602L367.568,204.024L371.91,207.726L376.709,214.413L379.223,215.621L381.28,220.381L385.165,222.937L383.108,225.421L380.366,226.414L379.908,229.393L374.652,228.755L374.652,229.889L370.539,229.393L370.082,232.937L368.482,234.212L368.711,237.116L366.197,242.141L364.14,244.193L359.798,244.688L359.112,246.031L354.085,247.021L351.114,245.89L350.2,247.798L349.971,247.021L332.146,247.162L333.289,240.585L334.66,235.133L334.203,230.173L335.574,227.904L326.661,228.187L326.204,226.201L327.119,219.102L326.661,216.829L330.089,214.626L328.947,211.426L327.347,211.497L323.462,206.374L321.862,202.813L323.462,199.25L338.773,199.179L342.201,197.325L342.43,194.687L345.172,190.905L348.829,191.047L349.514,187.406L352.028,184.762L352.714,181.188L357.513,181.188L361.169,179.4Z" fill="none" stroke="#333" stroke-width="0.8" stroke-linejoin="round"/>
    <path d="M419.215,430.172L423.329,425.99L439.097,420.639L446.867,420.364L450.295,419.06L468.806,400.358L475.89,400.289L475.89,396.844L478.176,396.776L478.176,394.156L480.232,394.156L480.232,388.846L497.6,371.364L500.114,374.477L503.542,376.482L504.685,374.684L509.484,374.892L513.14,378.902L515.197,383.254L515.883,386.845L497.372,405.589L496.001,408.685L496.458,417L492.801,421.737L490.059,420.639L486.631,424.893L486.174,422.629L483.889,423.452L482.289,422.149L481.375,424.481L483.203,425.304L481.603,428.39L478.861,428.047L477.947,431.542L475.89,430.377L474.748,432.981L472.691,433.323L470.177,436.062L470.634,437.979L466.978,442.015L465.607,445.639L461.036,444.955L457.38,446.937L454.637,446.391L451.895,448.441L448.695,447.621L439.097,452.061L430.185,450.831L430.185,448.782L424.7,444.613L424.929,440.784L421.272,433.118Z" fill="none" stroke="#333" stroke-width="0.8" stroke-linejoin="round"/>
    <path d="M489.831,666.151L491.659,667.273L494.173,666.349L494.173,668.329L490.288,668.593L488.231,667.207ZM486.86,639.367L488.916,637.246L489.145,632.67L489.145,598.815L493.03,598.815L493.03,600.482L499.657,600.482L499.657,602.215L501.942,602.148L501.942,605.547L518.854,605.68L518.854,607.345L524.795,607.345L539.421,643.475L540.792,649.763L538.507,650.16L538.507,655.451L530.737,655.451L521.139,662.586L520.91,664.897L511.769,660.803L509.027,660.671L503.542,657.169L499.657,647.844L497.372,647.182L493.487,643.673L492.573,643.872L488.002,639.566ZM480.461,723.516L483.66,723.058L488.231,725.347L490.059,727.375L487.088,728.355L482.518,726.982Z" fill="none" stroke="#333" stroke-width="0.8" stroke-linejoin="round"/>
    <path d="M573.7,688.092L575.071,686.907L575.529,683.486L579.185,678.086L582.613,675.582L582.613,672.55L594.725,672.484L601.809,678.284L607.751,686.052L610.493,686.973L610.722,690.591L614.378,691.117L618.492,694.535L612.093,704.056L612.322,706.287L612.322,708.975L607.751,710.155L606.837,715.267L604.552,711.991L601.124,709.565L599.067,709.697L594.725,703.465L588.783,699.592L585.584,698.607L581.013,694.863L576.9,690.525Z" fill="none" stroke="#333" stroke-width="0.8" stroke-linejoin="round"/>
    <path d="M441.383,529.478L483.203,529.478L529.823,529.411L557.018,529.411L576.671,529.276L580.556,529.478L585.812,529.68L585.812,528.804L604.323,528.871L604.323,535.678L603.18,537.968L605.466,537.968L604.323,540.257L604.552,555.988L604.552,604.947L602.266,604.88L560.217,605.147L526.624,605.28L524.795,607.345L518.854,607.345L518.854,605.68L501.942,605.547L501.942,602.148L499.657,602.215L499.657,600.482L493.03,600.482L493.03,598.815L489.145,598.815L487.317,598.815L487.317,585.128L486.174,583.992L481.603,584.326L482.061,577.103L474.976,577.505L474.976,570.676L465.835,570.609L465.835,563.772L461.264,563.772L461.264,556.928L453.952,556.861L451.666,552.227L448.238,550.077L448.238,543.151L441.383,543.218Z" fill="none" stroke="#333" stroke-width="0.8" stroke-linejoin="round"/>
    <path d="M309.293,348.622L314.549,349.109L317.292,350.914L322.548,348.414L327.347,347.997L331.003,349.664L335.117,348.136L336.945,350.914L339.688,351.956L343.115,351.262L346.543,348.483L347.915,345.704L353.171,345.843L352.714,350.567L354.542,352.095L352.942,354.732L354.542,358.895L353.171,364.647L355.913,365.548L354.542,368.249L329.175,376.068L325.519,373.854L326.433,372.54L323.462,369.703L317.52,369.218L315.007,368.249L312.036,363.262L309.065,361.044L306.322,361.737L302.209,361.113L299.01,356.398L300.838,357.022L302.895,355.218L302.895,352.442L307.237,352.581Z" fill="none" stroke="#333" stroke-width="0.8" stroke-linejoin="round"/>
    <path d="M433.613,520.234L456.237,498.587L456.237,481.283L469.263,481.215L469.72,480.059L474.519,478.904L474.976,479.855L480.918,474.347L483.889,474.347L483.66,481.215L487.088,481.283L487.088,491.671L483.66,491.671L483.203,502.042L483.203,529.478L441.383,529.478L440.011,529.478L439.554,527.118L437.269,525.094L438.412,523.474L436.126,520.301Z" fill="none" stroke="#333" stroke-width="0.8" stroke-linejoin="round"/>
    <path d="M197.543,189.477L227.937,189.405L227.937,191.476L266.787,191.404L267.701,196.47L265.873,197.254L265.187,202.457L266.559,206.303L266.559,210.501L268.158,210.501L269.529,213.702L269.986,224.356L269.758,228.613L266.787,229.605L261.074,229.464L258.56,230.669L257.875,238.603L260.16,244.475L261.531,245.677L261.531,249.282L262.902,252.743L259.703,257.826L257.646,257.826L256.732,266.215L258.56,266.779L259.017,270.371L260.845,272.341L263.588,272.341L264.502,277.617L265.873,280.289L269.529,280.64L269.301,281.835L274.1,284.363L257.417,284.153L253.99,285.206L253.99,287.734L239.135,287.944L239.135,290.33L230.908,290.19L228.623,291.032L221.081,284.012L215.597,275.859L218.796,270.371L218.568,267.413L215.368,258.531L211.712,249.847L210.112,242.424L210.798,235.416L213.769,226.059L212.626,222.369L212.626,217.753L209.427,211.213L208.512,203.525L204.856,200.961L203.485,197.04Z" fill="none" stroke="#333" stroke-width="0.8" stroke-linejoin="round"/>
    <path d="M228.623,291.032L230.908,290.19L239.135,290.33L239.135,287.944L253.99,287.734L253.99,285.206L257.417,284.153L274.1,284.363L278.671,288.085L282.327,295.73L285.069,296.08L286.441,299.234L285.298,304.905L286.898,307.984L291.697,311.27L292.611,315.393L295.582,316.79L294.668,319.095L297.867,322.724L297.181,323.701L301.295,328.791L300.609,330.673L302.895,333.459L304.037,337.776L302.666,340.698L300.381,340.837L301.066,341.95L298.324,343.966L295.125,344.592L290.097,338.332L285.069,338.819L279.128,336.732L268.387,327.467L264.73,327.815L262.445,329.488L258.56,329L258.332,324.329L254.447,316.93L249.876,313.367L246.677,312.039L241.649,307.564L233.193,295.239Z" fill="none" stroke="#333" stroke-width="0.8" stroke-linejoin="round"/>
    <path d="M350.2,247.798L351.114,245.89L354.085,247.021L359.112,246.031L359.798,244.688L364.14,244.193L366.197,242.141L368.711,237.116L368.482,234.212L370.082,232.937L370.539,229.393L374.652,229.889L374.652,228.755L379.908,229.393L380.366,226.414L383.108,225.421L385.165,222.937L389.507,219.458L388.364,226.13L386.307,227.904L387.907,229.818L388.593,239.948L384.708,239.665L381.965,240.868L376.938,246.102L376.024,248.929L373.053,249.706L372.139,253.167L372.139,269.244L370.539,267.765L366.654,269.455L363.683,272.412L358.884,272.764L355.456,274.382L353.399,278.742L351.114,267.342L352.714,264.736L350.657,257.12L350.885,253.308L349.514,250.625Z" fill="none" stroke="#333" stroke-width="0.8" stroke-linejoin="round"/>
    <path d="M375.566,422.972L392.249,406.071L391.106,401.735L429.042,382.978L435.898,397.051L436.812,401.666L442.068,410.404L442.297,412.809L448.238,416.245L450.295,419.06L446.867,420.364L439.097,420.639L423.329,425.99L419.215,430.172L415.559,433.802L416.016,437.5L411.902,437.431L395.22,454.382L394.306,453.426L381.051,446.732L380.366,444.408L377.395,440.51L375.109,439.552L376.252,436.815L374.424,435.035L374.424,431.679L376.709,428.253L374.424,426.539Z" fill="none" stroke="#333" stroke-width="0.8" stroke-linejoin="round"/>
    <path d="M558.16,454.04L559.76,457.111L557.703,458.203L560.674,463.316L562.731,465.224L562.502,468.766L565.245,470.741L565.473,475.028L567.53,478.768L571.872,479.652L570.958,482.302L574.614,486.174L573.015,489.16L574.614,496.486L577.357,500.416L576.671,505.224L577.814,506.646L578.956,512.192L580.556,513.68L579.871,515.978L581.47,517.329L582.156,523.339L580.785,523.677L580.556,529.478L576.671,529.276L557.018,529.411L529.823,529.411L483.203,529.478L483.203,502.042L483.66,491.671L487.088,491.671L487.088,481.283L483.66,481.215L483.889,474.347L480.918,474.347L487.774,467.472L497.829,467.609L498.058,460.726L518.397,460.999L518.397,454.245Z" fill="none" stroke="#333" stroke-width="0.8" stroke-linejoin="round"/>
    <path d="M352.257,328.094L352.942,326.56L356.827,324.259L356.142,318.676L357.97,317.698L357.741,315.393L355.456,314.765L354.77,311.76L356.599,311.34L357.513,304.695L354.77,304.485L354.085,301.335L352.257,301.195L349.743,297.762L351.571,293.697L359.112,293.767L381.051,295.66L382.422,295.239L388.364,312.249L388.364,329.14L385.85,329.209L378.994,332.763L375.795,333.668L372.824,333.041L368.025,334.991L363.912,334.713L362.769,332.832L359.341,332.902L356.37,337.776L355.913,341.185L352.714,343.758L353.171,345.843L347.915,345.704L346.543,348.483L343.115,351.262L339.688,351.956L336.945,350.914L335.117,348.136L339.23,348.553L342.658,346.399L344.715,346.538L346.315,340.559L350.885,337.636Z" fill="none" stroke="#333" stroke-width="0.8" stroke-linejoin="round"/>
    <path d="M300.381,340.837L313.864,340.907L312.721,338.889L314.092,336.175L312.493,332.205L314.321,331.439L313.178,327.885L322.319,327.885L320.72,322.305L318.206,318.676L319.806,311.83L322.776,311.48L325.519,313.856L330.089,310.222L335.346,309.802L339.916,311.061L342.887,309.872L345.858,310.711L345.858,327.955L352.257,328.094L350.885,337.636L346.315,340.559L344.715,346.538L342.658,346.399L339.23,348.553L335.117,348.136L331.003,349.664L327.347,347.997L322.548,348.414L317.292,350.914L314.549,349.109L309.293,348.622L307.237,344.94L301.066,341.95Z" fill="none" stroke="#333" stroke-width="0.8" stroke-linejoin="round"/>
    <path d="M305.18,370.741L305.408,370.949L305.18,370.741ZM301.523,376.966L294.439,376.966L293.525,371.156L296.724,369.218L300.381,368.664L301.752,370.326L303.352,376.413Z" fill="none" stroke="#333" stroke-width="0.8" stroke-linejoin="round"/>
    <path d="M497.6,371.364L480.232,388.846L480.232,394.156L478.176,394.156L478.176,396.776L475.89,396.844L475.89,400.289L468.806,400.358L450.295,419.06L448.238,416.245L442.297,412.809L442.068,410.404L436.812,401.666L435.898,397.051L429.042,382.978L428.814,378.971L432.698,381.666L434.07,380.491L431.784,375.514L437.041,374.892L438.412,372.471L441.84,371.987L442.068,369.98L445.496,371.087L448.467,367.349L452.123,368.664L457.608,372.54L462.179,371.779L465.607,373.024L469.72,371.571L475.89,367.972L475.89,366.448L478.861,364.925L480.689,361.876L483.66,362.084L485.946,364.509L490.059,364.232L493.258,366.379Z" fill="none" stroke="#333" stroke-width="0.8" stroke-linejoin="round"/>
    <path d="M262.445,329.488L264.73,327.815L268.387,327.467L279.128,336.732L285.069,338.819L290.097,338.332L295.125,344.592L295.582,347.65L294.439,350.845L297.867,354.385L295.125,356.12L294.21,359.172L298.552,363.054L296.953,364.024L294.439,362.014L296.039,366.933L292.611,368.041L290.554,365.409L284.612,361.183L281.641,362.014L276.385,357.369L274.1,353.691L270.215,351.4L266.559,350.845L261.988,353.136L265.187,344.314L265.873,340.976L263.131,334.573L264.73,333.181Z" fill="none" stroke="#333" stroke-width="0.8" stroke-linejoin="round"/>
    <path d="M332.146,247.162L349.971,247.021L350.2,247.798L349.514,250.625L350.885,253.308L350.657,257.12L352.714,264.736L351.114,267.342L353.399,278.742L355.456,274.382L358.884,272.764L363.683,272.412L363.683,278.11L360.027,278.18L360.027,292.364L359.112,293.767L351.571,293.697L352.257,291.453L346.315,291.453L344.03,288.155L344.03,284.293L342.201,282.607L340.145,283.802L338.088,282.186L338.773,279.023L336.717,278.25L337.859,273.045L337.631,269.455L336.031,266.286L333.517,266.145L329.861,257.332L331.003,255.779L329.632,252.39Z" fill="none" stroke="#333" stroke-width="0.8" stroke-linejoin="round"/>
    <path d="M368.939,90.288L397.962,90.288L453.723,90.288L453.723,126.869L453.952,129.323L453.952,183.619L453.723,211.639L453.495,212.564L452.58,213.702L444.353,213.844L446.867,206.659L446.867,194.615L443.211,192.189L440.925,188.477L440.24,182.404L437.955,180.616L432.013,179.972L427.671,177.325L424.7,172.458L422.872,172.458L421.272,168.876L416.93,167.586L416.93,165.793L413.959,165.793L412.131,163.929L405.047,163.283L402.99,166.439L398.191,169.449L398.191,172.959L394.534,173.603L393.392,171.168L389.735,171.168L386.079,168.231L386.079,152.369L369.168,152.441L369.625,113.785L368.939,113.785Z" fill="none" stroke="#333" stroke-width="0.8" stroke-linejoin="round"/>
    <path d="M807.942,662.256L807.942,666.217L801.543,673.868L803.142,675.187L803.6,678.81L802.228,679.206L802,682.564L803.6,686.776L804.057,691.643L802.228,692.431L801.314,699.658L802.228,702.678L800.172,704.253L796.058,709.959L795.83,711.729L743.954,712.122L742.125,712.253L703.047,712.319L642.716,712.253L629.461,711.86L629.233,710.549L621.006,707.402L621.463,706.287L612.322,706.287L612.093,704.056L618.492,694.535L614.378,691.117L610.722,690.591L610.493,686.973L607.751,686.052L601.809,678.284L602.952,674.198L605.694,674.132L605.923,670.572L609.122,669.252L609.122,665.821L620.777,665.755L621.006,666.877L630.375,666.943L631.061,668.065L649.115,667.999L649.115,665.755L675.852,665.821L751.952,665.755L751.952,662.388Z" fill="none" stroke="#333" stroke-width="0.8" stroke-linejoin="round"/>
    <path d="M358.427,152.441L369.168,152.441L386.079,152.369L386.079,168.231L389.735,171.168L393.392,171.168L394.534,173.603L398.191,172.959L398.191,169.449L402.99,166.439L405.047,163.283L412.131,163.929L413.959,165.793L416.93,165.793L416.93,167.586L421.272,168.876L422.872,172.458L424.7,172.458L427.671,177.325L432.013,179.972L437.955,180.616L440.24,182.404L440.925,188.477L443.211,192.189L446.867,194.615L446.867,206.659L444.353,213.844L413.045,213.915L410.303,216.261L405.732,212.848L403.447,213.63L401.847,210.857L398.191,208.153L394.306,211.07L393.163,216.829L389.507,219.458L385.165,222.937L381.28,220.381L379.223,215.621L376.709,214.413L371.91,207.726L367.568,204.024L367.111,201.602L363.683,200.248L363.912,193.046L363.226,188.263L366.654,182.404L364.14,179.972L364.369,176.968L362.083,176.968L362.083,173.317L364.14,173.675L366.654,171.885L367.797,166.582L365.968,164.718L368.254,163.785L365.74,161.203L360.027,160.27Z" fill="none" stroke="#333" stroke-width="0.8" stroke-linejoin="round"/>
    <path d="M319.349,396.431L323.462,396.982L329.632,396.293L331.003,397.396L334.66,395.053L360.027,395.122L360.027,399.876L360.941,402.079L363.912,403.18L362.997,405.039L364.14,408.891L360.712,411.091L360.941,413.772L363.454,416.863L365.054,421.874L367.339,418.991L369.168,420.433L372.139,419.06L375.566,422.972L374.424,426.539L376.709,428.253L374.424,431.679L374.424,435.035L376.252,436.815L363.454,436.815L361.169,434.624L358.884,435.035L354.313,441.878L352.942,441.742L352.942,440.168L348.829,439.074L341.744,429.76L335.117,425.373L333.289,425.304L326.89,422.217L324.376,418.511L320.72,415.901L316.606,410.885L314.092,408.272L315.235,407.653L313.407,404.901L314.321,399.187L315.921,397.465Z" fill="none" stroke="#333" stroke-width="0.8" stroke-linejoin="round"/>
    <path d="M363.683,272.412L366.654,269.455L370.539,267.765L372.139,269.244L378.08,271.004L381.28,268.962L383.336,271.145L387.45,270.934L390.649,265.793L391.335,263.044L395.905,258.108L398.419,257.261L399.105,255.144L402.533,252.955L407.332,248.434L412.588,246.243L453.266,246.102L453.495,258.531L453.495,262.833L453.495,266.568L444.582,266.568L442.068,269.526L438.412,270.159L426.071,269.737L423.786,274.945L421.044,277.758L417.159,279.094L412.817,276.633L407.332,271.778L402.076,272.06L399.105,276L393.849,275.156L393.849,277.336L387.45,279.023L386.079,284.715L383.565,287.172L383.565,289.628L381.051,295.66L359.112,293.767L360.027,292.364L360.027,278.18L363.683,278.11Z" fill="none" stroke="#333" stroke-width="0.8" stroke-linejoin="round"/>
    <path d="M368.025,529.006L382.651,529.141L440.011,529.478L441.383,529.478L441.383,543.218L448.238,543.151L448.238,550.077L451.666,552.227L453.952,556.861L461.264,556.928L461.264,563.772L465.835,563.772L465.835,570.609L474.976,570.676L474.976,577.505L482.061,577.103L481.603,584.326L486.174,583.992L487.317,585.128L487.317,598.815L483.203,599.081L478.176,594.945L474.519,593.21L469.72,593.077L464.464,590.54L462.864,588.669L458.294,586.532L455.551,586.732L448.238,582.321L445.496,583.725L445.496,583.725L442.982,585.262L442.068,588.202L440.24,589.471L437.041,589.137L437.041,589.137L432.241,590.873L434.984,595.279L434.755,598.081L426.071,592.142L421.729,591.741L413.959,593.944L412.359,593.077L413.502,586.331L413.274,581.518L409.16,577.772L405.961,577.304L405.275,578.709L399.105,575.028L396.591,571.814L398.876,563.034L398.419,559.68L395.905,556.123L389.735,555.183L383.565,548.329L379.451,541.536L373.967,539.853L370.082,535.409L369.853,532.377Z" fill="none" stroke="#333" stroke-width="0.8" stroke-linejoin="round"/>
    <path d="M294.439,376.966L301.523,376.966L303.809,384.428L303.352,386.292L309.522,387.88L315.692,393.398L317.52,393.053L319.349,396.431L315.921,397.465L314.321,399.187L313.407,404.901L315.235,407.653L314.092,408.272L316.606,410.885L316.606,416.519L310.893,416.519L310.893,418.511L306.094,418.785L307.694,425.167L304.951,424.344L304.494,422.217L300.609,418.099L299.695,413.84L300.838,404.97L298.095,398.842L297.638,395.259L294.896,394.294L293.525,392.019L293.296,387.604L294.896,382.149Z" fill="none" stroke="#333" stroke-width="0.8" stroke-linejoin="round"/>
    <path d="M476.576,326.979L478.633,323.771L477.719,321.538L481.603,320.142L482.746,312.948L477.947,304.415L478.176,299.374L480.004,295.52L496.458,310.082L507.427,319.863L511.998,324.189L526.395,336.871L553.818,361.806L577.585,383.669L591.754,396.5L531.651,396.707L530.28,394.639L526.852,395.673L522.739,389.674L518.854,389.122L515.883,386.845L515.197,383.254L513.14,378.902L509.484,374.892L504.685,374.684L503.542,376.482L500.114,374.477L504.456,370.049L503.542,365.202L503.771,361.598L498.058,357.924L496.915,355.981L497.829,350.984L494.858,346.608L490.059,344.383L488.916,345.635L485.717,340.976L484.574,342.367L477.261,337.497L478.861,334.295L476.119,330.533Z" fill="none" stroke="#333" stroke-width="0.8" stroke-linejoin="round"/>
    <path d="M606.837,715.267L607.751,710.155L612.322,708.975L612.322,706.287L621.463,706.287L621.006,707.402L629.233,710.549L629.461,711.86L642.716,712.253L703.047,712.319L703.276,739.069L701.676,739.069L701.676,773.639L636.774,780L636.088,773.639L634.032,769.612L632.203,768.312L629.004,769.807L628.319,765.517L628.547,760.899L626.719,758.231L628.776,754.26L626.719,743.767L623.748,735.478L621.691,731.95L612.55,719.327Z" fill="none" stroke="#333" stroke-width="0.8" stroke-linejoin="round"/>
    <path d="M286.441,299.234L296.724,296.221L301.066,288.155L302.666,287.032L301.295,283.169L304.037,285.557L307.922,285.206L312.036,296.641L315.692,300.284L318.206,306.095L319.806,311.83L318.206,318.676L320.72,322.305L322.319,327.885L313.178,327.885L314.321,331.439L312.493,332.205L314.092,336.175L312.721,338.889L313.864,340.907L300.381,340.837L302.666,340.698L304.037,337.776L302.895,333.459L300.609,330.673L301.295,328.791L297.181,323.701L297.867,322.724L294.668,319.095L295.582,316.79L292.611,315.393L291.697,311.27L286.898,307.984L285.298,304.905Z" fill="none" stroke="#333" stroke-width="0.8" stroke-linejoin="round"/>
    <path d="M306.322,361.737L309.065,361.044L312.036,363.262L315.007,368.249L317.52,369.218L323.462,369.703L326.433,372.54L325.519,373.854L329.175,376.068L354.542,368.249L354.542,390.295L357.97,391.605L360.027,395.19L360.027,395.122L334.66,395.053L331.003,397.396L329.632,396.293L323.462,396.982L322.091,394.432L319.349,393.122L317.063,387.121L315.464,379.593L310.664,375.86L310.207,372.678L305.408,370.949L305.18,370.741L307.237,365.756Z" fill="none" stroke="#333" stroke-width="0.8" stroke-linejoin="round"/>
    <path d="M304.723,278.32L336.717,278.25L338.773,279.023L338.088,282.186L340.145,283.802L342.201,282.607L344.03,284.293L344.03,288.155L346.315,291.453L352.257,291.453L351.571,293.697L349.743,297.762L352.257,301.195L354.085,301.335L354.77,304.485L357.513,304.695L356.599,311.34L354.77,311.76L355.456,314.765L357.741,315.393L357.97,317.698L356.142,318.676L356.827,324.259L352.942,326.56L352.257,328.094L345.858,327.955L345.858,310.711L342.887,309.872L339.916,311.061L335.346,309.802L330.089,310.222L325.519,313.856L322.776,311.48L319.806,311.83L318.206,306.095L315.692,300.284L312.036,296.641L307.922,285.206L304.037,285.557L301.295,283.169L299.467,279.937L300.609,278.18Z" fill="none" stroke="#333" stroke-width="0.8" stroke-linejoin="round"/>
    <path d="M269.986,224.356L279.585,224.285L279.813,235.062L279.356,240.585L277.071,246.526L278.213,248.717L283.013,252.532L289.868,255.356L293.525,254.932L296.039,257.826L294.439,262.128L294.896,267.624L299.924,270.441L300.381,275.156L304.723,278.32L300.609,278.18L299.467,279.937L301.295,283.169L302.666,287.032L301.066,288.155L296.724,296.221L286.441,299.234L285.069,296.08L282.327,295.73L278.671,288.085L274.1,284.363L269.301,281.835L269.529,280.64L265.873,280.289L264.502,277.617L263.588,272.341L260.845,272.341L259.017,270.371L258.56,266.779L256.732,266.215L257.646,257.826L259.703,257.826L262.902,252.743L261.531,249.282L261.531,245.677L260.16,244.475L257.875,238.603L258.56,230.669L261.074,229.464L266.787,229.605L269.758,228.613Z" fill="none" stroke="#333" stroke-width="0.8" stroke-linejoin="round"/>
    <path d="M542.62,708.32L546.277,708.648L552.676,712.122L557.475,713.564L557.703,715.201L561.36,719.196L560.217,722.011L557.246,720.374L551.305,719.916L549.933,717.625L549.933,712.777L545.363,711.729ZM542.392,742.397L544.449,742.136L549.476,749.765L558.617,758.231L556.332,757.971L553.818,759.403L549.933,756.539L546.963,751.85L543.763,744.093ZM524.795,607.345L526.624,605.28L560.217,605.147L602.266,604.88L602.266,625.369L603.18,642.282L603.637,646.123L601.581,655.583L598.153,666.745L595.868,666.613L593.582,670.242L594.725,672.484L582.613,672.55L582.613,675.582L579.185,678.086L575.529,683.486L575.071,686.907L573.7,688.092L569.815,686.513L569.358,689.604L564.559,691.117L560.446,690.196L558.16,688.552L554.732,688.157L553.818,685.657L555.875,683.42L556.104,680.589L552.904,672.945L550.39,668.725L546.505,665.425L538.507,665.359L533.479,665.887L529.823,668.263L526.624,665.755L520.91,664.897L521.139,662.586L530.737,655.451L538.507,655.451L538.507,650.16L540.792,649.763L539.421,643.475Z" fill="none" stroke="#333" stroke-width="0.8" stroke-linejoin="round"/>
    <path d="M266.559,206.303L323.462,206.374L327.347,211.497L328.947,211.426L330.089,214.626L326.661,216.829L327.119,219.102L326.204,226.201L326.661,228.187L335.574,227.904L334.203,230.173L334.66,235.133L333.289,240.585L325.747,240.585L325.747,238.107L317.749,238.036L317.749,240.443L279.356,240.585L279.813,235.062L279.585,224.285L269.986,224.356L269.529,213.702L268.158,210.501L266.559,210.501Z" fill="none" stroke="#333" stroke-width="0.8" stroke-linejoin="round"/>
    <path d="M316.606,410.885L320.72,415.901L324.376,418.511L326.89,422.217L333.289,425.304L335.117,425.373L341.744,429.76L348.829,439.074L352.942,440.168L352.942,441.742L349.971,440.716L349.057,442.152L345.401,440.1L339.916,442.836L338.316,445.57L335.117,439.142L332.375,436.199L330.089,435.446L328.033,437.363L319.577,437.226L313.178,432.57L307.694,425.167L306.094,418.785L310.893,418.511L310.893,416.519L316.606,416.519Z" fill="none" stroke="#333" stroke-width="0.8" stroke-linejoin="round"/>
    <path d="M194.801,66.472L213.54,66.545L213.54,73.62L220.624,73.547L230.68,73.474L232.508,74.859L234.793,86.653L236.621,90.651L235.25,93.194L233.651,100.018L235.479,100.671L236.621,104.224L234.108,108.645L234.108,110.673L231.137,112.917L226.795,110.166L223.138,111.976L226.109,117.909L228.166,128.24L227.937,131.632L227.937,189.405L197.543,189.477L193.887,187.12L193.887,184.048L192.058,180.974L187.031,178.685L175.833,167.872L176.747,163.355L175.833,158.332L172.862,153.016L174.919,145.969L178.118,138.121L187.716,118.993L190.23,112.121L191.83,103.499L189.088,100.816L188.859,93.775L189.773,93.63L192.287,86.435L194.344,74.13Z" fill="none" stroke="#333" stroke-width="0.8" stroke-linejoin="round"/>
    <path d="M361.626,21.104L387.678,21.398L397.734,21.325L432.698,21.398L453.723,21.251L453.723,21.325L453.723,90.288L397.962,90.288L368.939,90.288L361.626,90.361L361.398,69.464L361.398,39.986L360.941,39.986L360.941,25.15Z" fill="none" stroke="#333" stroke-width="0.8" stroke-linejoin="round"/>
    <path d="M307.694,425.167L304.951,424.344L304.494,422.217L300.609,418.099L299.695,413.84L300.838,404.97L298.095,398.842L297.638,395.259L294.896,394.294L293.525,392.019L293.296,387.604L294.896,382.149L294.439,376.966L293.525,371.156L296.724,369.218L300.381,368.664L301.752,370.326L303.352,376.413L301.523,376.966L303.809,384.428L303.352,386.292L309.522,387.88L315.692,393.398L317.52,393.053L319.349,396.431L323.462,396.982L322.091,394.432L319.349,393.122L317.063,387.121L315.464,379.593L310.664,375.86L310.207,372.678L305.408,370.949L305.18,370.741L307.237,365.756L306.322,361.737L302.209,361.113L299.01,356.398L300.838,357.022L302.895,355.218L302.895,352.442L307.237,352.581L309.293,348.622L307.237,344.94L301.066,341.95L298.324,343.966L295.125,344.592L295.582,347.65L294.439,350.845L297.867,354.385L295.125,356.12L294.21,359.172L298.552,363.054L296.953,364.024L294.439,362.014L296.039,366.933L292.611,368.041L290.554,365.409L284.612,361.183L281.641,362.014L276.385,357.369L274.1,353.691L270.215,351.4L266.559,350.845L261.988,353.136L265.187,344.314L265.873,340.976L263.131,334.573L264.73,333.181L262.445,329.488L258.56,329L258.332,324.329L254.447,316.93L249.876,313.367L246.677,312.039L241.649,307.564L233.193,295.239L228.623,291.032L221.081,284.012L215.597,275.859L218.796,270.371L218.568,267.413L215.368,258.531L211.712,249.847L210.112,242.424L210.798,235.416L213.769,226.059L212.626,222.369L212.626,217.753L209.427,211.213L208.512,203.525L204.856,200.961L203.485,197.04L197.543,189.477L193.887,187.12L193.887,184.048L192.058,180.974L187.031,178.685L175.833,167.872L176.747,163.355L175.833,158.332L172.862,153.016L174.919,145.969L178.118,138.121L187.716,118.993L190.23,112.121L191.83,103.499L189.088,100.816L188.859,93.775L189.773,93.63L192.287,86.435L194.344,74.13L194.801,66.472L193.887,59.46L190.459,50.098L188.63,43.065L186.574,43.358L182.689,39.399L184.974,33.968L186.117,25.886L185.431,20.957L210.341,21.178L220.853,21.251L229.766,20.736L240.506,20.883L248.048,20.515L253.304,20L259.703,20.589L285.983,20.442L294.439,20.074L307.922,20.147L326.433,20.515L361.626,21.104L387.678,21.398L397.734,21.325L432.698,21.398L453.723,21.251L453.723,21.325L453.723,90.288L453.723,126.869L453.952,129.323L453.952,183.619L453.723,211.639L453.495,212.564L453.495,235.487L453.266,246.102L453.495,258.531L453.495,262.833L453.495,266.568L453.723,272.13L459.665,277.547L480.004,295.52L496.458,310.082L507.427,319.863L511.998,324.189L526.395,336.871L553.818,361.806L577.585,383.669L591.754,396.5L634.032,435.994L692.306,491.06L718.13,515.708L730.699,527.86L745.782,542.343L761.779,558.069L795.373,591.007L795.144,600.815L798.8,604.614L800.4,609.21L805.656,613.403L811.598,629.286L811.141,633.135L814.112,633.599L821.196,640.229L824.396,641.487L826.909,645.064L827.138,648.307L821.425,652.608L821.196,653.864L817.311,655.253L815.026,657.896L808.856,660.407L807.942,662.256L807.942,666.217L801.543,673.868L803.142,675.187L803.6,678.81L802.228,679.206L802,682.564L803.6,686.776L804.057,691.643L802.228,692.431L801.314,699.658L802.228,702.678L800.172,704.253L796.058,709.959L795.83,711.729L794.687,713.039L789.431,713.891L791.259,717.232L789.202,721.487L792.63,724.17L792.173,733.453L790.573,737.828L793.773,742.266L794.458,741.157L797.429,742.788L799.029,741.94L802.914,742.658L804.971,749.634L806.113,751.329L805.885,756.474L801.771,760.574L802.228,763.176L796.515,764.867L791.031,764.021L789.888,766.037L742.354,769.937L701.676,773.639L636.774,780L636.088,773.639L634.032,769.612L632.203,768.312L629.004,769.807L628.319,765.517L628.547,760.899L626.719,758.231L628.776,754.26L626.719,743.767L623.748,735.478L621.691,731.95L612.55,719.327L606.837,715.267L604.552,711.991L601.124,709.565L599.067,709.697L594.725,703.465L588.783,699.592L585.584,698.607L581.013,694.863L576.9,690.525L573.7,688.092L569.815,686.513L569.358,689.604L564.559,691.117L560.446,690.196L558.16,688.552L554.732,688.157L553.818,685.657L555.875,683.42L556.104,680.589L552.904,672.945L550.39,668.725L546.505,665.425L538.507,665.359L533.479,665.887L529.823,668.263L526.624,665.755L520.91,664.897L511.769,660.803L509.027,660.671L503.542,657.169L499.657,647.844L497.372,647.182L493.487,643.673L492.573,643.872L488.002,639.566L486.86,639.367L481.832,636.583L474.519,636.318L470.863,637.909L466.749,636.252L461.722,636.915L453.266,632.936L448.01,632.936L444.582,631.941L434.527,632.405L423.557,633.864L423.329,631.808L420.358,627.427L416.702,625.435L413.959,625.701L412.588,623.575L415.559,614.068L413.045,610.075L414.873,602.148L410.988,598.548L412.359,593.077L413.502,586.331L413.274,581.518L409.16,577.772L405.961,577.304L405.275,578.709L399.105,575.028L396.591,571.814L398.876,563.034L398.419,559.68L395.905,556.123L389.735,555.183L383.565,548.329L379.451,541.536L373.967,539.853L370.082,535.409L369.853,532.377L368.025,529.006L363.683,524.284L360.484,521.922L359.112,515.234L357.97,512.869L353.399,510.908L349.971,503.87L344.258,497.503L336.717,493.163L334.203,490.11L332.375,484.68L332.603,481.826L330.089,474.96L330.546,468.698L328.033,467.609L330.318,462.567L334.431,465.156L336.488,463.112L338.088,458.953L339.916,449.329L338.316,445.57L335.117,439.142L332.375,436.199L330.089,435.446L328.033,437.363L319.577,437.226L313.178,432.57ZM513.597,707.336L515.426,706.877L515.654,709.565L513.14,709.106ZM458.751,662.454L462.864,662.917L465.835,664.369L469.263,664.039L473.605,666.877L477.947,667.141L479.547,664.567L484.117,665.887L481.603,668.725L475.205,669.45L471.32,671.495L461.722,669.912L461.493,665.887ZM437.955,668.263L442.982,667.735L445.039,666.349L448.01,666.877L450.981,665.623L450.981,668.791L455.094,669.648L455.323,672.814L445.953,676.373L442.297,673.934ZM425.157,665.491L428.814,664.369L430.185,662.52L431.556,664.831L434.527,666.547L429.728,666.943ZM489.831,666.151L491.659,667.273L494.173,666.349L494.173,668.329L490.288,668.593L488.231,667.207ZM480.461,723.516L483.66,723.058L488.231,725.347L490.059,727.375L487.088,728.355L482.518,726.982ZM542.62,708.32L546.277,708.648L552.676,712.122L557.475,713.564L557.703,715.201L561.36,719.196L560.217,722.011L557.246,720.374L551.305,719.916L549.933,717.625L549.933,712.777L545.363,711.729ZM542.392,742.397L544.449,742.136L549.476,749.765L558.617,758.231L556.332,757.971L553.818,759.403L549.933,756.539L546.963,751.85L543.763,744.093Z" fill="none" stroke="#111" stroke-width="1.6" stroke-linejoin="round"/>
  </g>
</svg>