<?xml version="1.0" encoding="UTF-8"?>
<svg xmlns="http://www.w3.org/2000/svg" viewBox="0.0 197.6 2000.0 1604.8" width="2000" height="1605">
  <title>Map with Major Cities of Denmark</title>
  <rect x="0.0" y="197.6" width="2000.0" height="1604.8" fill="white"/>
  <g>
    <path d="M1260.292,1212.128L1260.292,1261.575L1253.325,1276.044L1243.371,1285.4L1215.5,1294.752L1191.611,1309.196L1169.713,1333.811L1162.745,1368.557L1178.671,1393.941L1209.528,1407.466L1217.491,1456.413L1191.611,1479.998L1127.907,1503.555L1120.939,1560.644L1122.93,1605.859L1121.934,1638.449L1116.957,1683.484L1065.198,1703.465L1031.355,1635.109L1031.355,1607.532L1020.405,1575.727L1019.41,1548.065L1007.465,1504.395L957.696,1492.621L938.784,1490.939L911.909,1498.509L905.936,1495.986L873.089,1435.33L879.061,1368.557L862.14,1334.659L859.153,1319.385L860.149,1302.4L846.213,1288.802L828.297,1281.148L820.334,1243.687L840.241,1234.31L888.019,1238.573L902.95,1236.015L915.89,1228.341L954.71,1165.977L953.715,1152.281L957.696,1134.29L999.502,1127.432L1018.415,1151.425L1015.428,1190.776L1017.419,1239.425L1043.299,1253.059L1053.253,1255.614L1063.207,1218.956L1071.17,1201.028L1081.124,1190.776L1085.105,1157.418L1079.133,1136.861L1066.193,1122.287L1113.971,1080.216L1163.74,1047.525L1192.606,1045.803L1221.473,1053.552L1248.348,1064.738L1263.279,1074.198L1271.242,1089.668L1253.325,1126.575L1248.348,1146.286ZM477.922,1678.485L473.94,1678.485L456.024,1674.318L444.079,1664.315L411.231,1670.985L367.435,1687.648L343.545,1686.815L324.633,1669.317L246.993,1644.293L234.053,1641.789L182.293,1640.954L179.307,1600.84L173.335,1572.376L155.418,1529.601L182.293,1519.523L177.317,1435.33L167.363,1391.404L92.709,1346.53L32.986,1303.25L46.921,1154.85L52.894,1115.424L30,1037.19L32.986,946.52L41.945,804.031L60.857,797.926L74.792,798.798L127.547,824.95L149.446,827.564L164.377,850.197L182.293,859.764L195.233,835.401L200.21,793.563L242.016,739.386L271.878,719.249L291.786,709.61L311.693,731.509L327.619,756.005L331.601,702.597L343.545,599.735L303.73,582.978L270.883,597.09L239.03,662.222L210.164,744.636L163.381,751.633L126.552,775.23L92.709,750.759L70.811,729.758L70.811,699.09L75.788,679.787L114.607,612.953L168.358,548.535L221.113,549.419L259.933,529.078L283.822,526.423L355.49,530.847L393.315,516.685L426.162,486.556L498.825,361.09L539.636,308.341L621.257,289.53L696.906,228.488L718.805,227.589L682.971,273.391L676.998,290.426L673.017,317.292L697.901,376.262L692.925,411.911L694.915,481.234L671.026,517.571L643.155,594.445L631.211,605.905L629.22,694.704L632.206,716.62L628.225,797.053L656.095,830.176L684.962,847.586L783.504,846.716L793.458,860.634L806.398,885.832L797.44,928.334L786.491,959.499L758.62,986.295L721.791,1006.152L698.897,1007.015L668.04,969.012L653.109,981.112L638.179,1000.974L612.299,1103.409L600.354,1172.821L594.382,1178.808L579.451,1168.544L554.566,1167.688L523.71,1183.938L539.636,1198.465L556.557,1224.076L549.59,1236.868L521.719,1250.503L497.83,1277.745L486.88,1299.002L456.024,1323.629L437.111,1355.005L446.07,1393.941L450.051,1427.735L459.01,1465.682L451.047,1495.145L413.222,1537.996L399.287,1575.727L431.139,1574.89L452.042,1583.265L463.987,1594.147L475.931,1610.04L467.968,1629.263ZM727.763,1298.152L739.708,1323.629L753.643,1377.868L776.537,1438.705L766.583,1463.997L773.551,1495.986L766.583,1530.441L722.786,1569.025L672.022,1570.701L620.262,1552.259L546.603,1515.322L540.631,1495.145L530.677,1484.207L510.77,1421.825L511.765,1343.987L548.594,1334.659L629.22,1298.152L647.137,1303.25L667.045,1322.78L689.938,1323.629L721.791,1296.452ZM925.844,1646.797L975.613,1676.819L1008.461,1675.152L1030.359,1686.815L1036.331,1705.962L1038.322,1748.349L1014.433,1760.799L988.553,1756.65L952.719,1772.411L836.26,1703.465L838.25,1645.962L842.232,1623.415L897.973,1617.565ZM752.648,1714.28L740.703,1716.775L723.781,1678.485L721.791,1665.983L741.698,1640.954L753.643,1612.549L786.491,1569.025L805.403,1517.843L812.37,1518.683L804.407,1564.835L761.606,1690.979ZM1254.32,1610.877L1244.366,1618.4L1201.565,1612.549L1153.787,1645.962L1135.87,1635.944L1142.837,1614.221L1147.814,1606.696L1163.74,1597.494L1174.69,1584.102L1178.671,1563.158L1188.625,1574.89L1218.486,1579.078L1232.422,1585.776L1244.366,1595.82ZM1287.168,1304.949L1261.288,1325.326L1255.316,1324.478L1246.357,1295.602L1260.292,1278.596L1268.256,1264.129L1274.228,1264.129L1282.191,1280.297ZM683.966,1667.65L665.054,1672.652L644.151,1662.647L609.312,1622.579L605.331,1612.549L623.248,1619.236L646.142,1640.119L664.058,1644.293L688.943,1661.814ZM566.511,1649.3L537.645,1655.975L523.71,1644.293L495.839,1640.119L486.88,1565.673L488.871,1561.482L502.807,1566.511L549.59,1600.84L565.516,1638.449ZM717.809,1212.982L712.832,1222.369L695.911,1212.982L693.92,1181.373L699.892,1152.281L692.925,1126.575L700.888,1110.276L725.772,1148.855L732.74,1166.833L723.781,1188.212ZM841.237,476.798L829.292,488.33L791.467,471.473L808.389,448.382L850.195,436.826L874.084,440.382L847.209,464.371ZM1956.065,1584.102L1946.111,1592.473L1900.323,1578.24L1844.582,1544.709L1853.54,1479.156L1867.476,1450.512L1969.005,1524.563L1970,1552.259Z" fill="none" stroke="#333" stroke-width="0.7" stroke-linejoin="round"/>
    <path d="M1260.292,1212.128L1260.292,1261.575L1253.325,1276.044L1243.371,1285.4L1215.5,1294.752L1191.611,1309.196L1169.713,1333.811L1162.745,1368.557L1178.671,1393.941L1209.528,1407.466L1217.491,1456.413L1191.611,1479.998L1127.907,1503.555L1120.939,1560.644L1122.93,1605.859L1121.934,1638.449L1116.957,1683.484L1065.198,1703.465L1031.355,1635.109L1031.355,1607.532L1020.405,1575.727L1019.41,1548.065L1007.465,1504.395L957.696,1492.621L938.784,1490.939L911.909,1498.509L905.936,1495.986L873.089,1435.33L879.061,1368.557L862.14,1334.659L859.153,1319.385L860.149,1302.4L846.213,1288.802L828.297,1281.148L820.334,1243.687L840.241,1234.31L888.019,1238.573L902.95,1236.015L915.89,1228.341L954.71,1165.977L953.715,1152.281L957.696,1134.29L999.502,1127.432L1018.415,1151.425L1015.428,1190.776L1017.419,1239.425L1043.299,1253.059L1053.253,1255.614L1063.207,1218.956L1071.17,1201.028L1081.124,1190.776L1085.105,1157.418L1079.133,1136.861L1066.193,1122.287L1113.971,1080.216L1163.74,1047.525L1192.606,1045.803L1221.473,1053.552L1248.348,1064.738L1263.279,1074.198L1271.242,1089.668L1253.325,1126.575L1248.348,1146.286ZM477.922,1678.485L473.94,1678.485L456.024,1674.318L444.079,1664.315L411.231,1670.985L367.435,1687.648L343.545,1686.815L324.633,1669.317L246.993,1644.293L234.053,1641.789L182.293,1640.954L179.307,1600.84L173.335,1572.376L155.418,1529.601L182.293,1519.523L177.317,1435.33L167.363,1391.404L92.709,1346.53L32.986,1303.25L46.921,1154.85L52.894,1115.424L30,1037.19L32.986,946.52L41.945,804.031L60.857,797.926L74.792,798.798L127.547,824.95L149.446,827.564L164.377,850.197L182.293,859.764L195.233,835.401L200.21,793.563L242.016,739.386L271.878,719.249L291.786,709.61L311.693,731.509L327.619,756.005L331.601,702.597L343.545,599.735L303.73,582.978L270.883,597.09L239.03,662.222L210.164,744.636L163.381,751.633L126.552,775.23L92.709,750.759L70.811,729.758L70.811,699.09L75.788,679.787L114.607,612.953L168.358,548.535L221.113,549.419L259.933,529.078L283.822,526.423L355.49,530.847L393.315,516.685L426.162,486.556L498.825,361.09L539.636,308.341L621.257,289.53L696.906,228.488L718.805,227.589L682.971,273.391L676.998,290.426L673.017,317.292L697.901,376.262L692.925,411.911L694.915,481.234L671.026,517.571L643.155,594.445L631.211,605.905L629.22,694.704L632.206,716.62L628.225,797.053L656.095,830.176L684.962,847.586L783.504,846.716L793.458,860.634L806.398,885.832L797.44,928.334L786.491,959.499L758.62,986.295L721.791,1006.152L698.897,1007.015L668.04,969.012L653.109,981.112L638.179,1000.974L612.299,1103.409L600.354,1172.821L594.382,1178.808L579.451,1168.544L554.566,1167.688L523.71,1183.938L539.636,1198.465L556.557,1224.076L549.59,1236.868L521.719,1250.503L497.83,1277.745L486.88,1299.002L456.024,1323.629L437.111,1355.005L446.07,1393.941L450.051,1427.735L459.01,1465.682L451.047,1495.145L413.222,1537.996L399.287,1575.727L431.139,1574.89L452.042,1583.265L463.987,1594.147L475.931,1610.04L467.968,1629.263ZM727.763,1298.152L739.708,1323.629L753.643,1377.868L776.537,1438.705L766.583,1463.997L773.551,1495.986L766.583,1530.441L722.786,1569.025L672.022,1570.701L620.262,1552.259L546.603,1515.322L540.631,1495.145L530.677,1484.207L510.77,1421.825L511.765,1343.987L548.594,1334.659L629.22,1298.152L647.137,1303.25L667.045,1322.78L689.938,1323.629L721.791,1296.452ZM925.844,1646.797L975.613,1676.819L1008.461,1675.152L1030.359,1686.815L1036.331,1705.962L1038.322,1748.349L1014.433,1760.799L988.553,1756.65L952.719,1772.411L836.26,1703.465L838.25,1645.962L842.232,1623.415L897.973,1617.565ZM752.648,1714.28L740.703,1716.775L723.781,1678.485L721.791,1665.983L741.698,1640.954L753.643,1612.549L786.491,1569.025L805.403,1517.843L812.37,1518.683L804.407,1564.835L761.606,1690.979ZM1254.32,1610.877L1244.366,1618.4L1201.565,1612.549L1153.787,1645.962L1135.87,1635.944L1142.837,1614.221L1147.814,1606.696L1163.74,1597.494L1174.69,1584.102L1178.671,1563.158L1188.625,1574.89L1218.486,1579.078L1232.422,1585.776L1244.366,1595.82ZM1287.168,1304.949L1261.288,1325.326L1255.316,1324.478L1246.357,1295.602L1260.292,1278.596L1268.256,1264.129L1274.228,1264.129L1282.191,1280.297ZM683.966,1667.65L665.054,1672.652L644.151,1662.647L609.312,1622.579L605.331,1612.549L623.248,1619.236L646.142,1640.119L664.058,1644.293L688.943,1661.814ZM566.511,1649.3L537.645,1655.975L523.71,1644.293L495.839,1640.119L486.88,1565.673L488.871,1561.482L502.807,1566.511L549.59,1600.84L565.516,1638.449ZM717.809,1212.982L712.832,1222.369L695.911,1212.982L693.92,1181.373L699.892,1152.281L692.925,1126.575L700.888,1110.276L725.772,1148.855L732.74,1166.833L723.781,1188.212ZM841.237,476.798L829.292,488.33L791.467,471.473L808.389,448.382L850.195,436.826L874.084,440.382L847.209,464.371ZM1956.065,1584.102L1946.111,1592.473L1900.323,1578.24L1844.582,1544.709L1853.54,1479.156L1867.476,1450.512L1969.005,1524.563L1970,1552.259Z" fill="none" stroke="#111" stroke-width="1.4" stroke-linejoin="round"/>
    <g class="city-dots">
    <circle cx="1260.0" cy="1265.8" r="7" fill="#2a6e4e" stroke="#fff" stroke-width="2"/>
    <text x="1260.0" y="1252.8" font-family="Helvetica, Arial, sans-serif" font-size="26" font-weight="700" text-anchor="middle" fill="#1a1a18" stroke="#fff" stroke-width="4" paint-order="stroke">Copenhagen</text>
    <circle cx="606.2" cy="1025.6" r="6" fill="#2a6e4e" stroke="#fff" stroke-width="2"/>
    <text x="606.2" y="1013.6" font-family="Helvetica, Arial, sans-serif" font-size="22" font-weight="600" text-anchor="middle" fill="#1a1a18" stroke="#fff" stroke-width="4" paint-order="stroke">Aarhus</text>
    <circle cx="661.1" cy="1398.8" r="6" fill="#2a6e4e" stroke="#fff" stroke-width="2"/>
    <text x="661.1" y="1386.8" font-family="Helvetica, Arial, sans-serif" font-size="22" font-weight="600" text-anchor="middle" fill="#1a1a18" stroke="#fff" stroke-width="4" paint-order="stroke">Odense</text>
    <circle cx="528.2" cy="580.5" r="6" fill="#2a6e4e" stroke="#fff" stroke-width="2"/>
    <text x="528.2" y="568.5" font-family="Helvetica, Arial, sans-serif" font-size="22" font-weight="600" text-anchor="middle" fill="#1a1a18" stroke="#fff" stroke-width="4" paint-order="stroke">Aalborg</text>
    <circle cx="123.8" cy="1363.6" r="6" fill="#2a6e4e" stroke="#fff" stroke-width="2"/>
    <text x="123.8" y="1351.6" font-family="Helvetica, Arial, sans-serif" font-size="22" font-weight="600" text-anchor="middle" fill="#1a1a18" stroke="#fff" stroke-width="4" paint-order="stroke">Esbjerg</text>
  </g>
  </g>
</svg>