<?xml version="1.0" encoding="UTF-8"?>
<svg xmlns="http://www.w3.org/2000/svg" viewBox="0.0 79.6 2000.0 1840.9" width="2000" height="1841">
  <title>Blank Map of Spain</title>
  <rect x="0.0" y="79.6" width="2000.0" height="1840.9" fill="white"/>
  <g>
    <path d="M1725.443,716.929L1723.507,718.324L1717.7,716.929L1708.666,716.929L1708.344,712.344L1709.634,709.153L1711.247,705.762L1716.732,712.344L1725.443,713.54ZM1864.499,587.576L1873.21,591.422L1882.243,587.981L1887.083,588.993L1891.923,590.815L1892.89,598.3L1888.696,606.586L1882.889,614.863L1877.727,623.939L1873.532,634.413L1865.466,640.651L1858.046,644.271L1842.559,636.627L1833.526,634.614L1830.945,631.796L1828.686,620.108L1824.815,616.477L1818.685,614.863L1813.522,617.688L1806.747,623.939L1802.875,617.688L1797.391,616.679L1795.132,612.845L1795.132,608.202L1832.235,580.081L1842.882,573.796L1865.789,566.491L1869.338,567.506L1866.434,571.97L1866.434,573.796L1869.338,575.824L1868.693,579.27L1865.789,582.107ZM1967.419,581.499L1965.806,582.918L1938.382,569.332L1929.348,567.912L1927.09,565.882L1927.412,558.773L1928.058,555.724L1946.448,554.301L1961.289,559.179L1969.355,572.782L1970,575.013ZM1712.215,688.583L1708.989,695.579L1695.438,693.181L1692.212,690.183L1695.116,682.182L1699.31,681.181L1699.31,675.575L1703.504,669.765L1722.862,665.154L1727.379,669.163L1728.347,674.774L1716.732,686.983ZM1421.844,153.82L1422.167,158.102L1425.393,164.093L1429.265,166.231L1437.008,169.223L1442.816,169.651L1450.881,171.147L1456.366,174.564L1456.689,179.688L1455.076,185.661L1451.849,190.991L1449.914,195.251L1451.849,197.594L1454.753,199.51L1457.657,199.935L1459.915,199.297L1461.528,196.103L1464.432,192.056L1466.045,191.63L1466.045,193.76L1467.336,196.529L1477.337,201.425L1498.954,210.145L1507.342,210.357L1514.44,211.42L1516.376,215.032L1530.249,228.614L1533.476,228.19L1539.606,228.402L1547.026,227.342L1552.189,224.797L1555.738,225.221L1559.609,227.978L1564.126,230.099L1570.256,234.549L1575.418,240.056L1578.967,241.961L1600.584,238.15L1605.423,241.538L1610.585,241.538L1616.393,240.691L1628.976,242.384L1639.3,241.961L1640.268,240.479L1641.236,228.402L1642.849,223.948L1645.107,222.887L1651.237,223.736L1673.176,230.946L1682.21,235.397L1690.921,238.997L1698.665,239.421L1703.504,241.749L1710.602,253.382L1709.634,259.086L1709.957,261.198L1710.925,265.208L1710.602,269.638L1712.538,272.59L1715.764,273.011L1720.281,271.957L1724.798,270.27L1733.186,265.419L1735.445,264.575L1749.318,270.27L1755.448,273.854L1757.707,278.069L1760.61,282.07L1764.805,282.702L1770.612,278.701L1779.968,274.487L1795.455,278.279L1812.877,283.754L1820.298,284.386L1820.62,281.649L1821.911,277.858L1824.815,276.173L1829.009,275.54L1835.139,273.644L1841.914,270.27L1848.69,269.005L1856.11,271.325L1865.144,273.433L1870.629,273.433L1872.887,281.017L1877.404,283.965L1879.017,290.487L1871.274,294.062L1866.434,294.482L1865.144,305.825L1867.08,309.182L1871.597,312.119L1872.887,315.474L1873.855,332.226L1864.821,342.259L1851.916,353.532L1789.647,389.534L1774.806,406.955L1769.321,410.89L1723.185,421.856L1690.599,433.632L1675.112,437.76L1655.754,457.956L1646.72,466.184L1654.141,468.445L1662.53,478.099L1659.626,482.409L1647.366,488.972L1641.881,491.021L1638.977,489.997L1636.074,490.816L1615.425,525.582L1596.712,550.641L1586.388,561.414L1576.064,577.446L1553.479,619.1L1553.156,630.99L1564.449,671.969L1570.579,682.782L1579.613,691.782L1596.712,699.374L1600.584,706.959L1594.776,714.138L1577.999,726.886L1548.64,743.985L1536.057,757.481L1533.476,770.558L1524.765,776.495L1521.538,794.677L1516.376,806.71L1515.086,810.652L1509.601,819.907L1508.956,826.4L1517.989,835.638L1513.472,839.566L1508.956,841.333L1498.631,842.314L1463.787,843.492L1435.718,863.096L1421.522,880.505L1408.939,912.686L1393.453,931.742L1386.677,935.238L1376.03,926.885L1362.802,925.524L1349.897,928.44L1343.444,934.85L1332.797,938.538L1322.473,935.432L1300.534,933.684L1290.532,934.073L1275.046,939.314L1261.818,935.82L1239.556,934.073L1191.161,938.15L1185.353,940.285L1179.223,948.237L1163.737,961.796L1140.507,962.377L1119.213,971.082L1114.051,976.688L1105.017,991.939L1102.114,1003.119L1100.501,1003.312L1098.242,1000.615L1094.693,1001.386L1093.08,1010.052L1085.014,1013.901L1078.561,1015.247L1062.107,1008.319L1048.556,997.917L1041.459,997.338L1029.844,981.131L1024.682,970.696L1021.133,959.667L1021.778,955.407L1020.81,951.725L1010.486,947.267L1007.905,936.985L1015.648,923.775L1021.778,917.94L1025.649,916.384L1016.293,916.968L1009.518,925.524L1000.807,911.713L965.639,884.803L967.898,878.746L967.575,875.227L961.768,882.459L957.574,884.412L939.506,883.24L918.857,886.56L913.373,858.395L910.792,847.613L910.146,840.744L915.631,824.629L921.439,817.939L929.182,804.344L938.861,792.9L948.862,790.333L953.379,788.555L956.928,779.858L959.187,772.339L957.574,771.548L945.959,773.131L924.665,741.602L925.31,736.434L927.891,728.876L929.827,719.519L930.15,711.945L935.634,705.562L944.023,699.174L951.121,689.983L954.67,680.781L955.638,672.57L951.444,666.758L939.829,663.549L927.891,640.048L925.31,625.349L922.729,623.737L915.308,617.083L908.211,604.566L907.243,602.545L914.663,600.321L944.668,600.119L951.121,597.491L952.089,596.48L957.574,586.563L963.381,570.347L964.672,560.398L962.736,556.334L952.734,546.368L952.411,543.314L954.025,538.63L959.832,533.536L967.898,527.826L972.415,522.724L971.447,518.845L968.866,514.759L968.543,511.081L970.156,506.377L970.479,490.201L971.769,486.101L970.156,471.527L968.221,459.602L961.768,444.154L963.058,440.649L965.962,437.76L975.318,432.394L983.062,419.581L994.354,409.026L1008.872,400.53L1018.874,390.987L1023.068,383.718L1025.972,381.64L1025.004,378.314L1023.068,373.322L1017.261,368.536L1009.84,365.829L1001.452,365.829L996.29,364.996L994.999,361.037L995.322,350.819L994.999,340.588L993.386,335.99L989.514,332.435L981.771,333.481L975.318,330.552L970.156,329.925L967.253,332.017L952.734,331.389L946.604,329.715L942.087,327.832L939.506,328.878L937.893,330.971L937.57,334.108L936.602,338.08L931.118,341.842L919.18,345.601L909.501,345.183L900.467,342.677L897.564,340.588L893.369,338.916L874.979,341.006L872.721,339.543L866.591,343.304L857.234,347.898L852.072,348.106L850.136,347.271L849.491,345.183L845.619,338.08L846.587,334.317L854.008,323.226L853.363,320.713L850.136,317.151L847.555,311.909L846.587,309.392L841.748,308.973L836.908,311.7L817.55,317.151L813.033,319.037L804.645,324.483L795.934,332.644L789.481,334.317L786.9,331.807L786.255,312.748L796.579,300.156L803.677,292.38L800.451,290.908L792.707,291.118L793.03,285.017L796.902,282.281L800.451,275.751L796.256,272.801L793.03,268.583L793.03,257.396L793.998,252.748L793.03,247.885L777.221,254.65L773.027,253.593L773.027,245.135L781.738,232.43L782.706,228.614L772.382,226.706L764.638,220.341L760.121,214.82L754.959,206.743L754.959,199.51L760.121,182.675L767.542,177.554L773.995,174.564L787.545,162.809L805.935,164.948L817.55,162.595L827.875,156.604L834.005,155.105L843.361,149.964L843.038,142.89L839.812,137.527L842.716,132.589L853.363,126.358L865.3,118.401L878.851,116.894L892.724,109.573L902.08,114.311L910.146,112.804L919.503,118.185L931.763,130.655L949.83,135.809L964.349,131.729L989.514,131.085L1002.42,132.589L1025.004,129.581L1037.91,130.655L1058.558,124.423L1075.012,132.159L1106.308,135.809L1125.021,142.247L1177.288,152.749L1196.323,152.963L1222.779,146.964L1234.071,142.461L1244.395,145.249L1259.559,140.102L1266.98,140.96L1276.336,148.464L1309.89,158.316L1318.601,149.964L1325.054,148.036L1348.929,153.178L1373.127,163.665L1385.709,164.306L1404.099,161.526L1418.941,154.677ZM118.724,1826.25L111.304,1849.39L104.206,1858.562L100.012,1861.559L89.687,1864.026L77.427,1849.567L71.297,1834.911L67.748,1830.316L73.233,1826.604L81.299,1827.134L98.721,1824.128L102.27,1822.89L120.015,1808.021L137.76,1806.249L138.082,1811.032ZM353.602,1771.825L347.472,1778.577L340.697,1776.267L343.923,1761.512L346.827,1757.063L359.41,1750.654L369.734,1747.982L372.638,1741.211L376.187,1738.537L379.736,1742.637L376.832,1747.27L374.896,1762.223L367.798,1766.847ZM310.369,1847.625L298.109,1859.091L285.849,1856.446L283.913,1854.506L296.173,1851.684L307.143,1842.859L314.241,1823.42L325.533,1801.997L327.791,1792.777L331.986,1789.229L338.116,1788.874L340.697,1789.583L343.601,1794.373L343.601,1805.186L340.374,1823.243L334.567,1838.974ZM202.609,1849.743L201.964,1857.68L203.9,1865.436L203.577,1877.586L199.383,1883.921L188.091,1890.427L179.702,1889.372L174.863,1886.735L166.152,1876.178L165.829,1865.436L173.895,1858.209L177.121,1849.214L197.77,1850.802L199.706,1849.214L200.996,1848.684ZM42.583,1862.616L39.034,1863.497L34.517,1860.854L30,1852.919L33.226,1846.92L35.807,1844.095L40.002,1844.625L47.422,1849.037L50.003,1853.448L50.003,1856.27Z" fill="none" stroke="#333" stroke-width="0.7" stroke-linejoin="round"/>
    <path d="M1725.443,716.929L1723.507,718.324L1717.7,716.929L1708.666,716.929L1708.344,712.344L1709.634,709.153L1711.247,705.762L1716.732,712.344L1725.443,713.54ZM1864.499,587.576L1873.21,591.422L1882.243,587.981L1887.083,588.993L1891.923,590.815L1892.89,598.3L1888.696,606.586L1882.889,614.863L1877.727,623.939L1873.532,634.413L1865.466,640.651L1858.046,644.271L1842.559,636.627L1833.526,634.614L1830.945,631.796L1828.686,620.108L1824.815,616.477L1818.685,614.863L1813.522,617.688L1806.747,623.939L1802.875,617.688L1797.391,616.679L1795.132,612.845L1795.132,608.202L1832.235,580.081L1842.882,573.796L1865.789,566.491L1869.338,567.506L1866.434,571.97L1866.434,573.796L1869.338,575.824L1868.693,579.27L1865.789,582.107ZM1967.419,581.499L1965.806,582.918L1938.382,569.332L1929.348,567.912L1927.09,565.882L1927.412,558.773L1928.058,555.724L1946.448,554.301L1961.289,559.179L1969.355,572.782L1970,575.013ZM1712.215,688.583L1708.989,695.579L1695.438,693.181L1692.212,690.183L1695.116,682.182L1699.31,681.181L1699.31,675.575L1703.504,669.765L1722.862,665.154L1727.379,669.163L1728.347,674.774L1716.732,686.983ZM1421.844,153.82L1422.167,158.102L1425.393,164.093L1429.265,166.231L1437.008,169.223L1442.816,169.651L1450.881,171.147L1456.366,174.564L1456.689,179.688L1455.076,185.661L1451.849,190.991L1449.914,195.251L1451.849,197.594L1454.753,199.51L1457.657,199.935L1459.915,199.297L1461.528,196.103L1464.432,192.056L1466.045,191.63L1466.045,193.76L1467.336,196.529L1477.337,201.425L1498.954,210.145L1507.342,210.357L1514.44,211.42L1516.376,215.032L1530.249,228.614L1533.476,228.19L1539.606,228.402L1547.026,227.342L1552.189,224.797L1555.738,225.221L1559.609,227.978L1564.126,230.099L1570.256,234.549L1575.418,240.056L1578.967,241.961L1600.584,238.15L1605.423,241.538L1610.585,241.538L1616.393,240.691L1628.976,242.384L1639.3,241.961L1640.268,240.479L1641.236,228.402L1642.849,223.948L1645.107,222.887L1651.237,223.736L1673.176,230.946L1682.21,235.397L1690.921,238.997L1698.665,239.421L1703.504,241.749L1710.602,253.382L1709.634,259.086L1709.957,261.198L1710.925,265.208L1710.602,269.638L1712.538,272.59L1715.764,273.011L1720.281,271.957L1724.798,270.27L1733.186,265.419L1735.445,264.575L1749.318,270.27L1755.448,273.854L1757.707,278.069L1760.61,282.07L1764.805,282.702L1770.612,278.701L1779.968,274.487L1795.455,278.279L1812.877,283.754L1820.298,284.386L1820.62,281.649L1821.911,277.858L1824.815,276.173L1829.009,275.54L1835.139,273.644L1841.914,270.27L1848.69,269.005L1856.11,271.325L1865.144,273.433L1870.629,273.433L1872.887,281.017L1877.404,283.965L1879.017,290.487L1871.274,294.062L1866.434,294.482L1865.144,305.825L1867.08,309.182L1871.597,312.119L1872.887,315.474L1873.855,332.226L1864.821,342.259L1851.916,353.532L1789.647,389.534L1774.806,406.955L1769.321,410.89L1723.185,421.856L1690.599,433.632L1675.112,437.76L1655.754,457.956L1646.72,466.184L1654.141,468.445L1662.53,478.099L1659.626,482.409L1647.366,488.972L1641.881,491.021L1638.977,489.997L1636.074,490.816L1615.425,525.582L1596.712,550.641L1586.388,561.414L1576.064,577.446L1553.479,619.1L1553.156,630.99L1564.449,671.969L1570.579,682.782L1579.613,691.782L1596.712,699.374L1600.584,706.959L1594.776,714.138L1577.999,726.886L1548.64,743.985L1536.057,757.481L1533.476,770.558L1524.765,776.495L1521.538,794.677L1516.376,806.71L1515.086,810.652L1509.601,819.907L1508.956,826.4L1517.989,835.638L1513.472,839.566L1508.956,841.333L1498.631,842.314L1463.787,843.492L1435.718,863.096L1421.522,880.505L1408.939,912.686L1393.453,931.742L1386.677,935.238L1376.03,926.885L1362.802,925.524L1349.897,928.44L1343.444,934.85L1332.797,938.538L1322.473,935.432L1300.534,933.684L1290.532,934.073L1275.046,939.314L1261.818,935.82L1239.556,934.073L1191.161,938.15L1185.353,940.285L1179.223,948.237L1163.737,961.796L1140.507,962.377L1119.213,971.082L1114.051,976.688L1105.017,991.939L1102.114,1003.119L1100.501,1003.312L1098.242,1000.615L1094.693,1001.386L1093.08,1010.052L1085.014,1013.901L1078.561,1015.247L1062.107,1008.319L1048.556,997.917L1041.459,997.338L1029.844,981.131L1024.682,970.696L1021.133,959.667L1021.778,955.407L1020.81,951.725L1010.486,947.267L1007.905,936.985L1015.648,923.775L1021.778,917.94L1025.649,916.384L1016.293,916.968L1009.518,925.524L1000.807,911.713L965.639,884.803L967.898,878.746L967.575,875.227L961.768,882.459L957.574,884.412L939.506,883.24L918.857,886.56L913.373,858.395L910.792,847.613L910.146,840.744L915.631,824.629L921.439,817.939L929.182,804.344L938.861,792.9L948.862,790.333L953.379,788.555L956.928,779.858L959.187,772.339L957.574,771.548L945.959,773.131L924.665,741.602L925.31,736.434L927.891,728.876L929.827,719.519L930.15,711.945L935.634,705.562L944.023,699.174L951.121,689.983L954.67,680.781L955.638,672.57L951.444,666.758L939.829,663.549L927.891,640.048L925.31,625.349L922.729,623.737L915.308,617.083L908.211,604.566L907.243,602.545L914.663,600.321L944.668,600.119L951.121,597.491L952.089,596.48L957.574,586.563L963.381,570.347L964.672,560.398L962.736,556.334L952.734,546.368L952.411,543.314L954.025,538.63L959.832,533.536L967.898,527.826L972.415,522.724L971.447,518.845L968.866,514.759L968.543,511.081L970.156,506.377L970.479,490.201L971.769,486.101L970.156,471.527L968.221,459.602L961.768,444.154L963.058,440.649L965.962,437.76L975.318,432.394L983.062,419.581L994.354,409.026L1008.872,400.53L1018.874,390.987L1023.068,383.718L1025.972,381.64L1025.004,378.314L1023.068,373.322L1017.261,368.536L1009.84,365.829L1001.452,365.829L996.29,364.996L994.999,361.037L995.322,350.819L994.999,340.588L993.386,335.99L989.514,332.435L981.771,333.481L975.318,330.552L970.156,329.925L967.253,332.017L952.734,331.389L946.604,329.715L942.087,327.832L939.506,328.878L937.893,330.971L937.57,334.108L936.602,338.08L931.118,341.842L919.18,345.601L909.501,345.183L900.467,342.677L897.564,340.588L893.369,338.916L874.979,341.006L872.721,339.543L866.591,343.304L857.234,347.898L852.072,348.106L850.136,347.271L849.491,345.183L845.619,338.08L846.587,334.317L854.008,323.226L853.363,320.713L850.136,317.151L847.555,311.909L846.587,309.392L841.748,308.973L836.908,311.7L817.55,317.151L813.033,319.037L804.645,324.483L795.934,332.644L789.481,334.317L786.9,331.807L786.255,312.748L796.579,300.156L803.677,292.38L800.451,290.908L792.707,291.118L793.03,285.017L796.902,282.281L800.451,275.751L796.256,272.801L793.03,268.583L793.03,257.396L793.998,252.748L793.03,247.885L777.221,254.65L773.027,253.593L773.027,245.135L781.738,232.43L782.706,228.614L772.382,226.706L764.638,220.341L760.121,214.82L754.959,206.743L754.959,199.51L760.121,182.675L767.542,177.554L773.995,174.564L787.545,162.809L805.935,164.948L817.55,162.595L827.875,156.604L834.005,155.105L843.361,149.964L843.038,142.89L839.812,137.527L842.716,132.589L853.363,126.358L865.3,118.401L878.851,116.894L892.724,109.573L902.08,114.311L910.146,112.804L919.503,118.185L931.763,130.655L949.83,135.809L964.349,131.729L989.514,131.085L1002.42,132.589L1025.004,129.581L1037.91,130.655L1058.558,124.423L1075.012,132.159L1106.308,135.809L1125.021,142.247L1177.288,152.749L1196.323,152.963L1222.779,146.964L1234.071,142.461L1244.395,145.249L1259.559,140.102L1266.98,140.96L1276.336,148.464L1309.89,158.316L1318.601,149.964L1325.054,148.036L1348.929,153.178L1373.127,163.665L1385.709,164.306L1404.099,161.526L1418.941,154.677ZM118.724,1826.25L111.304,1849.39L104.206,1858.562L100.012,1861.559L89.687,1864.026L77.427,1849.567L71.297,1834.911L67.748,1830.316L73.233,1826.604L81.299,1827.134L98.721,1824.128L102.27,1822.89L120.015,1808.021L137.76,1806.249L138.082,1811.032ZM353.602,1771.825L347.472,1778.577L340.697,1776.267L343.923,1761.512L346.827,1757.063L359.41,1750.654L369.734,1747.982L372.638,1741.211L376.187,1738.537L379.736,1742.637L376.832,1747.27L374.896,1762.223L367.798,1766.847ZM310.369,1847.625L298.109,1859.091L285.849,1856.446L283.913,1854.506L296.173,1851.684L307.143,1842.859L314.241,1823.42L325.533,1801.997L327.791,1792.777L331.986,1789.229L338.116,1788.874L340.697,1789.583L343.601,1794.373L343.601,1805.186L340.374,1823.243L334.567,1838.974ZM202.609,1849.743L201.964,1857.68L203.9,1865.436L203.577,1877.586L199.383,1883.921L188.091,1890.427L179.702,1889.372L174.863,1886.735L166.152,1876.178L165.829,1865.436L173.895,1858.209L177.121,1849.214L197.77,1850.802L199.706,1849.214L200.996,1848.684ZM42.583,1862.616L39.034,1863.497L34.517,1860.854L30,1852.919L33.226,1846.92L35.807,1844.095L40.002,1844.625L47.422,1849.037L50.003,1853.448L50.003,1856.27Z" fill="none" stroke="#111" stroke-width="1.4" stroke-linejoin="round"/>
  </g>
</svg>